<?xml version="1.0" encoding="UTF-8" standalone="no"?>
<svg width="82px" height="82px" viewBox="0 0 82 82" version="1.1" xmlns="http://www.w3.org/2000/svg" xmlns:xlink="http://www.w3.org/1999/xlink">
    <!-- Generator: Sketch 42 (36781) - http://www.bohemiancoding.com/sketch -->
    <title>Shape</title>
    <desc>Created with Sketch.</desc>
    <defs></defs>
    <g id="Page-1" stroke="none" stroke-width="1" fill="none" fill-rule="evenodd">
        <g id="Homepage-Not-logged-in-Copy" transform="translate(-212.000000, -1143.000000)" stroke="#000000" fill-rule="nonzero">
            <g id="Recommendations" transform="translate(134.000000, 876.000000)">
                <g id="Card1" transform="translate(0.000000, 50.000000)">
                    <g id="Rating" transform="translate(78.662207, 20.000000)">
                        <g id="Review-stars" transform="translate(0.121354, 41.000000)">
                            <g id="star" transform="translate(0.008794, 0.000000)">
                                <g id="star-Kopie" transform="translate(0.207645, 157.000000)">
                                    <path d="M37.1197349,2.49999696 C38.7198822,-0.833332319 41.2801179,-0.833332319 42.8802651,2.49999696 L50.4649632,18.6333107 C52.0331076,21.9999732 56.2254934,25.1666361 59.7458175,25.7333021 L76.7393816,28.2999656 C80.2597056,28.8332983 81.0597792,31.4332951 78.4995436,34.033292 L66.2104125,46.5999434 C63.6501768,49.1999403 62.0820325,54.3332673 62.6580855,58.0332629 L65.5703536,75.7665746 C66.1784095,79.4332369 64.0982181,81.0332349 60.9299264,79.2999037 L45.7285273,70.9332472 C42.5922386,69.1665826 37.4077614,69.1665826 34.2714727,70.9332472 L19.0700735,79.2999037 C15.9017819,81.0332349 13.8215904,79.4332369 14.4296464,75.7665746 L17.3419145,58.0332629 C17.9179675,54.3332673 16.3498232,49.1999403 13.7895875,46.5999434 L1.5004564,34.033292 C-1.05977924,31.4332951 -0.259705583,28.8332983 3.26061839,28.2999656 L20.2541825,25.7333021 C23.7745065,25.166636 27.9668924,21.9999732 29.5350367,18.6333107 L37.1197349,2.49999696 Z" id="Shape"></path>
                                </g>
                            </g>
                        </g>
                    </g>
                </g>
            </g>
        </g>
    </g>
</svg>