<?xml version="1.0" encoding="UTF-8" standalone="no"?>
<svg width="36px" height="34px" viewBox="0 0 36 34" version="1.1" xmlns="http://www.w3.org/2000/svg" xmlns:xlink="http://www.w3.org/1999/xlink">
    <!-- Generator: Sketch 42 (36781) - http://www.bohemiancoding.com/sketch -->
    <title>Shape</title>
    <desc>Created with Sketch.</desc>
    <defs></defs>
    <g id="Page-1" stroke="none" stroke-width="1" fill="none" fill-rule="evenodd">
        <g id="Homepage-Not-logged-in-Copy" transform="translate(-578.000000, -3237.000000)" fill-rule="nonzero" fill="#FFFFFF">
            <g id="Footer" transform="translate(3.000000, 2952.000000)">
                <g id="icons" transform="translate(380.000000, 285.000000)">
                    <g id="facebook-Kopie" transform="translate(195.154122, 0.000000)">
                        <path d="M14.8290988,12.0177552 L14.8290988,15.4353598 L11.9925415,15.4353598 L11.9925415,19.533818 L14.8290988,19.533818 L14.8290988,29.0990921 L19.0812786,29.0990921 L19.0812786,19.533818 L23.3342331,19.533818 L23.3342331,15.4353598 L19.0820534,15.4353598 L19.0820534,12.7015962 C19.0820534,11.8813285 19.6490476,11.3354435 20.4976758,11.3354435 L23.3342331,11.3354435 L23.3342331,7.23623849 L19.7875773,7.23623849 C17.0963747,7.23620293 14.8290988,9.42191213 14.8290988,12.0177552 L14.8290988,12.0177552 Z M17.6355891,0.0039832636 C7.89844423,0.0039832636 0.00531245782,7.61087866 0.00531245782,17 C0.00531245782,26.3868452 7.89844423,33.9960167 17.6355891,33.9960167 C27.3727341,33.9960167 35.2635047,26.384569 35.2635047,17 C35.2635047,7.61087866 27.3727341,0.0039832636 17.6355891,0.0039832636 Z M29.3843848,28.3284017 C27.8591191,29.798795 26.0835776,30.9550795 24.1049822,31.7608368 C22.0579151,32.5961841 19.8833491,33.0195481 17.6379502,33.0195481 C15.3949125,33.0195481 13.2179853,32.5961841 11.1685572,31.7608368 C9.18996176,30.9550795 7.41205921,29.8010711 5.88679354,28.3284017 C4.36152787,26.8580084 3.16209295,25.1417908 2.32626625,23.2343766 C1.45738426,21.2632301 1.01822108,19.1623431 1.01822108,17 C1.01822108,14.8376569 1.45738426,12.7413222 2.32390516,10.7656234 C3.15973186,8.85820921 4.35916678,7.14654393 5.88443245,5.67387448 C7.40969811,4.20348117 9.18760067,3.04719665 11.1661961,2.24143933 C13.2156242,1.4083682 15.3925514,0.982728033 17.6355891,0.982728033 C19.880988,0.982728033 22.0555541,1.4083682 24.1026211,2.24143933 C26.0812165,3.04719665 27.856758,4.20348117 29.3820237,5.67387448 C30.9072893,7.14654393 32.1067243,8.85820921 32.9472731,10.7656234 C33.8114329,12.739046 34.2529572,14.8353808 34.2529572,17 C34.2529572,19.1646192 33.8090718,21.2655063 32.9472731,23.2343766 C32.1090853,25.1395146 30.9096504,26.8557322 29.3843848,28.3284017 Z" id="Shape"></path>
                    </g>
                </g>
            </g>
        </g>
    </g>
</svg>