<?xml version="1.0" encoding="UTF-8" standalone="no"?>
<svg width="36px" height="34px" viewBox="0 0 36 34" version="1.1" xmlns="http://www.w3.org/2000/svg" xmlns:xlink="http://www.w3.org/1999/xlink">
    <!-- Generator: Sketch 42 (36781) - http://www.bohemiancoding.com/sketch -->
    <title>Group</title>
    <desc>Created with Sketch.</desc>
    <defs></defs>
    <g id="Page-1" stroke="none" stroke-width="1" fill="none" fill-rule="evenodd">
        <g id="Homepage-Not-logged-in-Copy" transform="translate(-383.000000, -3237.000000)" fill-rule="nonzero" fill="#FFFFFF">
            <g id="Footer" transform="translate(3.000000, 2952.000000)">
                <g id="icons" transform="translate(380.000000, 285.000000)">
                    <g id="weixin">
                        <g id="Group">
                            <path d="M17.6344086,33.9744974 C15.2576959,33.9744974 12.9517763,33.5256308 10.7807607,32.6403019 C8.68396936,31.785266 6.80095666,30.5613612 5.18395951,29.0025366 C3.56696236,27.4437554 2.29738372,25.6284852 1.41043946,23.6071273 C0.492071795,21.5141718 0.0264542668,19.291209 0.0264542668,17 C0.0264542668,14.7083993 0.492071795,12.4852189 1.41043949,10.3921328 C2.29733861,8.37077485 3.56696243,6.55550469 5.18395955,4.99676705 C6.80091155,3.43811646 8.68392424,2.21434224 10.7807607,1.35943691 C12.9517763,0.474325685 15.2576508,0.0255025584 17.6344086,0.0255025584 C20.0113921,0.0255025584 22.3174924,0.474325685 24.488508,1.35943691 C26.5853445,2.21429871 28.468312,3.43811646 30.085264,4.99676705 C31.7021709,6.55546116 32.9717495,8.37073133 33.8585583,10.3921328 C34.7767906,12.4851754 35.2423629,14.7083993 35.2423629,17 C35.2423629,19.2912525 34.7767454,21.5141718 33.8585583,23.6070838 C32.9717044,25.6284417 31.7021708,27.4437554 30.085264,29.0025366 C28.4683571,30.5613613 26.5853444,31.7853531 24.4885531,32.640302 C22.3174472,33.5256308 20.011347,33.9744974 17.6344086,33.9744974 Z M17.6344086,0.874227424 C8.41082033,0.874227424 0.906851977,8.10823594 0.906851977,17 C0.906851977,25.8917641 8.41082033,33.1257726 17.6344086,33.1257726 C26.8579969,33.1257726 34.3619652,25.8917641 34.3619652,17 C34.3619652,8.10823594 26.8579969,0.874227424 17.6344086,0.874227424 Z" id="Shape"></path>
                            <path d="M13.1818987,12.7944594 C13.1818987,12.5302666 13.0980578,12.3176066 12.9309177,12.156523 C12.7638227,11.9951347 12.5434975,11.9146146 12.2694455,11.9146146 C11.9819392,11.9146146 11.7277977,11.9969627 11.5069308,12.1611801 C11.2866056,12.3256586 11.1759012,12.5367517 11.1759012,12.7944594 C11.1759012,13.045682 11.2866056,13.2536849 11.5069308,13.4179022 C11.7277977,13.5823808 11.9819392,13.6644677 12.2694455,13.6644677 C12.5434975,13.6644677 12.7638227,13.585471 12.9309177,13.4277387 C13.0980578,13.2697018 13.1818987,13.0586523 13.1818987,12.7944594 L13.1818987,12.7944594 Z M20.6328175,17.6959544 C20.6328175,17.5154154 20.547893,17.3542882 20.3770055,17.21266 C20.2067502,17.0707271 19.9880503,17 19.7204094,17 C19.539815,17 19.3743905,17.0725115 19.2238651,17.2172735 C19.07343,17.3623402 18.9982124,17.5219005 18.9982124,17.6959543 C18.9982124,17.8764934 19.0734299,18.0391439 19.2238651,18.184167 C19.3743905,18.3292772 19.539815,18.4017888 19.7204094,18.4017888 C19.9880503,18.4017888 20.206705,18.3308005 20.3770055,18.1890853 C20.547893,18.0471524 20.6328175,17.8829786 20.6328175,17.6959544 L20.6328175,17.6959544 Z M18.2663084,12.7944594 C18.2663084,12.5302666 18.184138,12.3176066 18.0207452,12.156523 C17.8569009,11.9951347 17.6376593,11.9146146 17.3636073,11.9146146 C17.076101,11.9146146 16.8219595,11.9969627 16.6016343,12.1611801 C16.3807674,12.3256586 16.2706048,12.5367517 16.2706048,12.7944594 C16.2706048,13.045682 16.3807674,13.2536849 16.6016343,13.4179022 C16.8219595,13.5823808 17.076101,13.6644677 17.3636073,13.6644677 C17.6376593,13.6644677 17.8569009,13.585471 18.0207452,13.4277387 C18.184138,13.2697018 18.2663084,13.0586523 18.2663084,12.7944594 L18.2663084,12.7944594 Z M24.6344734,17.6959544 C24.6344734,17.5154154 24.5474269,17.3542882 24.3739208,17.21266 C24.1997827,17.0707271 23.9827534,17 23.7215687,17 C23.5416064,17 23.3760916,17.0725115 23.2255662,17.2172735 C23.0751311,17.3623402 22.9999135,17.5219005 22.9999135,17.6959543 C22.9999135,17.8764934 23.075131,18.0391439 23.2255662,18.184167 C23.3760916,18.3292772 23.5416064,18.4017888 23.7215687,18.4017888 C23.9827534,18.4017888 24.1997827,18.3308005 24.3739208,18.1890853 C24.5474269,18.0471524 24.6344734,17.8829786 24.6344734,17.6959544 L24.6344734,17.6959544 Z M21.9665523,13.8579335 C21.7596814,13.8320365 21.5254053,13.8193274 21.2647173,13.8193274 C20.134693,13.8193274 19.0954624,14.0674597 18.1459422,14.5637244 C17.1964671,15.0599891 16.4495287,15.7318745 15.9046754,16.5793372 C15.359822,17.4267998 15.0873503,18.3533027 15.0873503,19.3585412 C15.0873503,19.8615521 15.1641932,20.351027 15.317879,20.8281845 C15.0841447,20.8472916 14.8568215,20.8571717 14.6359545,20.8571717 C14.4618615,20.8571717 14.2947214,20.8525146 14.1346245,20.8426346 C13.9739406,20.8328416 13.7901858,20.812124 13.5827731,20.780003 C13.3759022,20.747882 13.2270473,20.7250753 13.1367952,20.7126708 C13.046498,20.6991348 12.8643686,20.6654904 12.5903166,20.611172 C12.3162645,20.5562443 12.1491696,20.5219907 12.0889865,20.5095862 L9.55158998,21.7372776 L10.273787,19.6294803 C8.33447399,18.3211818 7.36508838,16.7420312 7.36508838,14.8924204 C7.36508838,13.8030493 7.69128702,12.8009011 8.34309736,11.885584 C8.9949077,10.970528 9.87720165,10.2502 10.9906113,9.72490457 C12.104021,9.19965267 13.3189698,8.93698322 14.6359997,8.93698322 C15.8127979,8.93698322 16.9240405,9.14964322 17.9703141,9.57518079 C19.0170393,10.0004572 19.8923804,10.5884277 20.5979176,11.3393098 C21.3034548,12.0901919 21.7596814,12.9299072 21.9665523,13.8579335 L21.9665523,13.8579335 Z M27.9037739,19.2813725 C27.9037739,20.0355624 27.6748705,20.7561951 27.2164767,21.4420519 C26.7586248,22.1289097 26.1385539,22.7521349 25.3566704,23.3131638 L25.90798,25.0629733 L23.9122764,24.0093793 C22.9095711,24.2476752 22.1809178,24.3667578 21.7263617,24.3667578 C20.5963374,24.3667578 19.5564748,24.1398653 18.6070449,23.6850794 C17.6580213,23.2307722 16.9105862,22.6138145 16.3657329,21.833684 C15.8208344,21.0540758 15.5484078,20.2029571 15.5484078,19.2813724 C15.5484078,18.3597878 15.8208344,17.5091914 16.3657329,16.7290609 C16.9105862,15.9494092 17.6580664,15.3322338 18.6070449,14.8779266 C19.5564748,14.4233583 20.5963374,14.1962047 21.7263617,14.1962047 C22.8027044,14.1962047 23.8155229,14.4233583 24.7645465,14.8779266 C25.7140668,15.3322338 26.4743692,15.9510195 27.0461311,16.7339791 C27.617893,17.5169823 27.9037739,18.3662729 27.9037739,19.2813725 L27.9037739,19.2813725 Z" id="Shape"></path>
                        </g>
                    </g>
                </g>
            </g>
        </g>
    </g>
</svg>