<?xml version="1.0" encoding="UTF-8" standalone="no"?>
<svg width="36px" height="34px" viewBox="0 0 36 34" version="1.1" xmlns="http://www.w3.org/2000/svg" xmlns:xlink="http://www.w3.org/1999/xlink">
    <!-- Generator: Sketch 42 (36781) - http://www.bohemiancoding.com/sketch -->
    <title>Group</title>
    <desc>Created with Sketch.</desc>
    <defs></defs>
    <g id="Page-1" stroke="none" stroke-width="1" fill="none" fill-rule="evenodd">
        <g id="Homepage-Not-logged-in-Copy" transform="translate(-675.000000, -3237.000000)" fill-rule="nonzero" fill="#FFFFFF">
            <g id="Footer" transform="translate(3.000000, 2952.000000)">
                <g id="icons" transform="translate(380.000000, 285.000000)">
                    <g id="weibo-Kopie" transform="translate(292.731183, 0.000000)">
                        <g id="Group">
                            <path d="M17.6344086,0 C7.89518649,0 0,7.61115234 0,17 C0,26.3888477 7.89518649,34 17.6344086,34 C27.3736307,34 35.2688172,26.3888477 35.2688172,17 C35.2688172,7.61115234 27.3736307,0 17.6344086,0 Z M17.6344086,33.2916777 C8.30098454,33.2916777 0.734755544,25.9976484 0.734755544,17 C0.734755544,8.00235156 8.30098454,0.708322266 17.6344086,0.708322266 C26.9678327,0.708322266 34.5340617,8.00235156 34.5340617,17 C34.5340617,25.9976484 26.9678327,33.2916777 17.6344086,33.2916777 Z" id="Shape"></path>
                            <path d="M23.2916784,16.6185625 C22.3770657,16.4473008 22.8215079,15.9721309 22.8215079,15.9721309 C22.8215079,15.9721309 23.7164541,14.5482812 22.644475,13.5131406 C21.3158669,12.231168 18.0875647,13.676334 18.0875647,13.676334 C16.8544649,14.0456523 17.181287,13.5077949 17.3556334,12.592418 C17.3556334,11.5138145 16.973015,9.68853906 13.6882619,10.7666113 C10.4068498,11.850627 7.58954637,15.6485332 7.58954637,15.6485332 C5.63033602,18.1722695 5.88951361,20.1226543 5.88951361,20.1226543 C6.37910954,24.4286348 11.1190801,25.6105664 14.8057392,25.8904355 C18.6844825,26.1840508 23.9192498,24.5998965 25.5067599,21.345293 C27.0939256,18.0854434 24.2095287,16.7951699 23.2916784,16.6185625 Z M15.0927117,24.6762637 C11.2423832,24.8498828 8.12949681,22.986125 8.12949681,20.5059512 C8.12949681,18.0228887 11.2423488,16.0317969 15.0927117,15.8604355 C18.9458644,15.6893066 22.0647782,17.2215977 22.0647782,19.6994141 C22.0647782,22.1793223 18.9458644,24.5073594 15.0927117,24.6762637 Z" id="Shape"></path>
                            <path d="M14.3246505,17.4959551 C10.4518313,17.9334395 10.8993733,21.4349746 10.8993733,21.4349746 C10.8993733,21.4349746 10.8597303,22.5435605 11.9377713,23.1083789 C14.2037928,24.2930664 16.5369078,23.5757461 17.7161055,22.1064746 C18.8953377,20.6365059 18.203015,17.0614922 14.3246505,17.4959551 Z M13.3477663,22.4102832 C12.6246867,22.4920625 12.0420279,22.0898398 12.0420279,21.5058301 C12.0420279,20.924543 12.5596598,20.3156973 13.2830838,20.2427168 C14.1137954,20.1665488 14.6541591,20.6284375 14.6541591,21.2124805 C14.6541591,21.7937676 14.0681594,22.3313594 13.3477663,22.4102832 Z M15.63063,20.5331113 C15.3858149,20.7098516 15.0843422,20.6853809 14.9549773,20.4734121 C14.8201361,20.2667891 14.8706628,19.9354551 15.1184056,19.7615703 C15.4055158,19.5553125 15.7037508,19.6146465 15.8331158,19.8215352 C15.9626873,20.0332383 15.8700034,20.350959 15.63063,20.5331113 Z" id="Shape"></path>
                            <path d="M24.7161736,7.93787109 C23.347957,7.62848438 21.940683,7.89503906 21.5463886,7.96801953 C21.5159073,7.97074219 21.4873547,7.99856641 21.4593187,8.00387891 C21.4455418,8.00660156 21.4371035,8.02028125 21.4371035,8.02028125 C21.048561,8.12636523 20.7641717,8.47373633 20.7641717,8.88402734 C20.7641717,9.37310938 21.1749639,9.77546484 21.6872917,9.77546484 C21.6872917,9.77546484 22.1854982,9.71091797 22.5232384,9.58335156 C22.85812,9.45316211 25.6922656,9.48643164 27.0998152,11.7682832 C27.8680141,13.4334863 27.4375899,14.5480488 27.3838256,14.7271465 C27.3838256,14.7271465 27.2011097,15.1598828 27.2011097,15.5858125 C27.2011097,16.0776504 27.6121774,16.3866387 28.1210265,16.3866387 C28.5464222,16.3866387 28.9038634,16.3306914 29.00812,15.6360488 L29.0137685,15.6360488 C30.5251268,10.7738164 27.1644976,8.48924219 24.7161736,7.93787109 Z" id="Shape"></path>
                            <path d="M25.1774924,15.1025078 C25.4895388,15.1025078 25.7548816,14.8796484 25.7993809,14.5891211 C25.8050638,14.5672734 25.8078537,14.5484141 25.8078537,14.5239766 C26.2807451,10.4191406 22.3233014,11.1255371 22.3233014,11.1255371 C21.9719565,11.1255371 21.6901159,11.3998945 21.6901159,11.7420859 C21.6901159,12.0788984 21.9719565,12.3532891 22.3233014,12.3532891 C25.1659543,11.7475645 24.5386584,14.4914375 24.5386584,14.4914375 C24.5386584,14.830873 24.8250798,15.1025078 25.1774924,15.1025078 Z" id="Shape"></path>
                        </g>
                    </g>
                </g>
            </g>
        </g>
    </g>
</svg>