<?xml version="1.0" encoding="UTF-8" standalone="no"?>
<svg width="36px" height="34px" viewBox="0 0 36 34" version="1.1" xmlns="http://www.w3.org/2000/svg" xmlns:xlink="http://www.w3.org/1999/xlink">
    <!-- Generator: Sketch 42 (36781) - http://www.bohemiancoding.com/sketch -->
    <title>Group</title>
    <desc>Created with Sketch.</desc>
    <defs></defs>
    <g id="Page-1" stroke="none" stroke-width="1" fill="none" fill-rule="evenodd">
        <g id="Homepage-Not-logged-in-Copy" transform="translate(-480.000000, -3237.000000)" fill-rule="nonzero" fill="#FFFFFF">
            <g id="Footer" transform="translate(3.000000, 2952.000000)">
                <g id="icons" transform="translate(380.000000, 285.000000)">
                    <g id="instagram" transform="translate(97.577061, 0.000000)">
                        <g id="Group">
                            <path d="M23.7053305,17.0000356 C23.7053305,20.2326318 20.9862744,22.852659 17.6344086,22.852659 C14.2812885,22.852659 11.5633761,20.2326318 11.5633761,17.0000356 C11.5633761,16.6150816 11.6031088,16.2392322 11.6777415,15.8745502 L7.59378954,15.8745502 L7.59378954,23.6539707 C7.59378954,25.3243096 8.99716381,26.6793305 10.7320502,26.6793305 L24.5367301,26.6793305 C26.2693661,26.6793305 27.6749908,25.3253766 27.6749908,23.6539707 L27.6749908,15.8745502 L23.5922563,15.8745502 C23.6657822,16.2392322 23.7053305,16.6150816 23.7053305,17.0000356 L23.7053305,17.0000356 Z M24.536767,7.32066946 L10.7320502,7.32066946 C8.99830746,7.32066946 7.59378954,8.6758682 7.59378954,10.3460293 L7.59378954,13.6235084 L12.6772214,13.6235084 C13.7757934,12.1266548 15.5866406,11.1473766 17.6343717,11.1473766 C19.6819922,11.1473766 21.4930607,12.1266548 22.591522,13.6235084 L27.6749908,13.6235084 L27.6749908,10.3460293 C27.6750277,8.67569038 26.2692554,7.32066946 24.536767,7.32066946 Z M26.0720304,11.0573619 C26.0720304,11.3556088 25.8199469,11.5976632 25.5117506,11.5976632 L23.8314644,11.5976632 C23.5232681,11.5976632 23.2710001,11.3545774 23.2710001,11.0573619 L23.2710001,9.43667155 C23.2710001,9.13835356 23.5244855,8.89640586 23.8314644,8.89640586 L25.5117506,8.89640586 C25.8210168,8.89640586 26.0720304,9.1394205 26.0720304,9.43667155 L26.0720304,11.0573619 Z M21.3705421,17.0000356 C21.3705421,15.010182 19.6973762,13.3984184 17.6344455,13.3984184 C15.5714041,13.3984184 13.8984226,15.010182 13.8984226,17.0000356 C13.8984226,18.9897824 15.5714041,20.6018305 17.6344455,20.6018305 C19.6973762,20.6018661 21.3705421,18.989818 21.3705421,17.0000356 Z" id="Shape"></path>
                            <path d="M17.6355891,0.0039832636 C7.89844423,0.0039832636 0.00531245782,7.61087866 0.00531245782,17 C0.00531245782,26.3868452 7.89844423,33.9960167 17.6355891,33.9960167 C27.3727341,33.9960167 35.2635047,26.384569 35.2635047,17 C35.2635047,7.61087866 27.3727341,0.0039832636 17.6355891,0.0039832636 Z M29.3843848,28.3284017 C27.8591191,29.798795 26.0835776,30.9550795 24.1049822,31.7608368 C22.0579151,32.5961841 19.8833491,33.0195481 17.6379502,33.0195481 C15.3949125,33.0195481 13.2179853,32.5961841 11.1685572,31.7608368 C9.18996176,30.9550795 7.41205921,29.8010711 5.88679354,28.3284017 C4.36152787,26.8580084 3.16209295,25.1417908 2.32626625,23.2343766 C1.45738426,21.2632301 1.01822108,19.1623431 1.01822108,17 C1.01822108,14.8376569 1.45738426,12.7413222 2.32390516,10.7656234 C3.15973186,8.85820921 4.35916678,7.14654393 5.88443245,5.67387448 C7.40969811,4.20348117 9.18760067,3.04719665 11.1661961,2.24143933 C13.2156242,1.4083682 15.3925514,0.982728033 17.6355891,0.982728033 C19.880988,0.982728033 22.0555541,1.4083682 24.1026211,2.24143933 C26.0812165,3.04719665 27.856758,4.20348117 29.3820237,5.67387448 C30.9072893,7.14654393 32.1067243,8.85820921 32.9472731,10.7656234 C33.8114329,12.739046 34.2529572,14.8353808 34.2529572,17 C34.2529572,19.1646192 33.8090718,21.2655063 32.9472731,23.2343766 C32.1090853,25.1395146 30.9096504,26.8557322 29.3843848,28.3284017 Z" id="Shape"></path>
                        </g>
                    </g>
                </g>
            </g>
        </g>
    </g>
</svg>