<?xml version="1.0" standalone="no"?><!DOCTYPE svg PUBLIC "-//W3C//DTD SVG 1.1//EN" "http://www.w3.org/Graphics/SVG/1.1/DTD/svg11.dtd"><svg t="1490888660516" class="icon" style="" viewBox="0 0 1066 1024" version="1.1" xmlns="http://www.w3.org/2000/svg" p-id="3613" xmlns:xlink="http://www.w3.org/1999/xlink" width="208.203125" height="200"><defs><style type="text/css"></style></defs><path d="M554.556235 255.285221 554.556235 255.285221zM299.269991 255.285221 299.269991 255.285221z" p-id="3614"></path><path d="M938.52835 0 938.52835 0zM767.4336 0 767.4336 0z" p-id="3615"></path><path d="M171.080423 0 171.080423 0zM-0.010233 0-0.010233 0z" p-id="3616"></path><path d="M799.682072 470.233758c-37.514405 0-104.398722 94.611821-234.896868 94.611821-8.188496 0-15.471366 0-21.201881 0-130.500193 0-197.383486-94.611821-234.897891-94.611821-42.413995 0-218.585367 9.785877-218.585367 373.549741 0 202.273866 181.069939 176.172395 194.117093 176.172395 13.050224 0 269.593088 1.101077 269.593088 1.101077l0.369414-7.111978 0.375553 7.111978c0 0 256.539794-1.101077 269.588995-1.101077 13.05534 0 194.120163 26.101471 194.120163-176.172395C1018.265392 480.019635 842.095044 470.233758 799.682072 470.233758L799.682072 470.233758z" p-id="3617"></path><path d="M554.556235 257.331833m-255.283174 0a249.469 249.469 0 1 0 510.566348 0 249.469 249.469 0 1 0-510.566348 0Z" p-id="3618"></path></svg>