<?xml version="1.0" encoding="iso-8859-1"?>
<!-- Generator: Adobe Illustrator 18.1.1, SVG Export Plug-In . SVG Version: 6.00 Build 0)  -->
<svg version="1.1" id="Capa_1" xmlns="http://www.w3.org/2000/svg" xmlns:xlink="http://www.w3.org/1999/xlink" x="0px" y="0px"
	 viewBox="0 0 76 76" style="enable-background:new 0 0 76 76;" xml:space="preserve">
<g id="_x37_7_Essential_Icons_38_">
	<path id="More_Details__x28_3_x29_" d="M38,0C17,0,0,17,0,38s17,38,38,38s38-17,38-38S59,0,38,0z M38,72C19.2,72,4,56.8,4,38
		S19.2,4,38,4s34,15.2,34,34S56.8,72,38,72z M38,31c-3.9,0-7,3.1-7,7s3.1,7,7,7s7-3.1,7-7S41.9,31,38,31z M38,41c-1.7,0-3-1.4-3-3
		c0-1.7,1.3-3,3-3s3,1.3,3,3C41,39.6,39.7,41,38,41z M58,31c-3.9,0-7,3.1-7,7s3.1,7,7,7s7-3.1,7-7S61.9,31,58,31z M58,41
		c-1.7,0-3-1.4-3-3c0-1.7,1.3-3,3-3s3,1.3,3,3C61,39.6,59.7,41,58,41z M18,31c-3.9,0-7,3.1-7,7s3.1,7,7,7s7-3.1,7-7S21.9,31,18,31z
		 M18,41c-1.7,0-3-1.4-3-3c0-1.7,1.3-3,3-3s3,1.3,3,3C21,39.6,19.7,41,18,41z"/>
</g>
<g>
</g>
<g>
</g>
<g>
</g>
<g>
</g>
<g>
</g>
<g>
</g>
<g>
</g>
<g>
</g>
<g>
</g>
<g>
</g>
<g>
</g>
<g>
</g>
<g>
</g>
<g>
</g>
<g>
</g>
</svg>
